# Blender v3.0.1 OBJ File: 'volkswagen_golf_mk2_09.blend'
# www.blender.org
mtllib funcar_collision_mesh.mtl
o Car_CollisonMesh_Cube.009
v 3.794125 0.555312 -1.374994
v 3.725823 0.250078 -1.476411
v 3.810749 0.550496 1.078972
v 3.759971 0.227674 0.945648
v 3.729049 0.531595 -1.679080
v 3.701324 0.486438 2.047644
v 3.801017 0.870747 -1.348420
v 3.570367 1.335863 -1.009590
v 2.516447 1.294802 -1.224249
v 2.516447 1.313090 0.444428
v 2.275472 0.889317 1.012902
v 2.385489 0.727629 2.049094
v 2.433284 0.277311 2.003009
v 2.357765 0.910473 -1.652484
v 2.404180 0.277762 -1.607987
v 2.516447 1.335863 -1.009590
v 2.285797 0.870747 -1.348420
v 2.385489 0.486438 2.047644
v 2.357765 0.531595 -1.679080
v 2.326843 0.227674 0.945648
v 2.276065 0.550496 1.078972
v 2.360991 0.250078 -1.476411
v 2.292689 0.555312 -1.374994
v 3.775122 0.490521 2.138743
v 3.775122 0.359265 2.138743
v 3.693852 0.359265 2.054630
v 3.693852 0.490521 2.054630
v 3.828644 0.490521 1.637188
v 3.828644 0.359265 1.702168
v 3.734898 0.359265 1.702168
v 3.734898 0.490521 1.637188
v 2.311692 0.490521 2.138743
v 2.311692 0.359265 2.138743
v 2.392962 0.359265 2.054630
v 2.392962 0.490521 2.054630
v 2.258170 0.490521 1.637188
v 2.258170 0.359265 1.702168
v 2.351916 0.359265 1.702168
v 2.351916 0.490521 1.637188
v 3.767501 0.589547 -1.792255
v 3.767501 0.448584 -1.801861
v 3.693852 0.438334 -1.674619
v 3.693852 0.579297 -1.665013
v 3.828644 0.571931 -1.409854
v 3.828644 0.430642 -1.474833
v 3.734898 0.430642 -1.474833
v 3.734898 0.571931 -1.409854
v 2.319313 0.589547 -1.792255
v 2.319313 0.448584 -1.801861
v 2.392962 0.438334 -1.674619
v 2.392962 0.579297 -1.665013
v 2.258170 0.571931 -1.409854
v 2.258170 0.430642 -1.474833
v 2.351916 0.430642 -1.474833
v 2.351916 0.571931 -1.409854
v 2.063074 0.887348 0.666275
v 2.065951 1.009053 0.666275
v 2.078256 0.887348 0.608684
v 2.081132 1.009053 0.608684
v 2.299851 0.824278 0.729172
v 2.211051 1.011616 0.729172
v 2.297682 0.824278 0.638506
v 2.208882 1.011616 0.638506
v 3.682634 0.277762 -1.607987
v 3.729049 0.910473 -1.652484
v 3.653530 0.277311 2.003009
v 3.701324 0.727629 2.049094
v 3.811342 0.889317 1.012902
v 3.570367 1.313090 0.444428
v 3.570367 1.294802 -1.224249
v 4.023740 0.887348 0.666275
v 4.020864 1.009053 0.666275
v 4.008558 0.887348 0.608684
v 4.005682 1.009053 0.608684
v 3.786963 0.824278 0.729172
v 3.875763 1.011616 0.729172
v 3.789132 0.824278 0.638506
v 3.877932 1.011616 0.638506
vt 0.196743 0.838929
vt 0.187083 0.875136
vt 0.196743 0.838929
vt 0.942327 0.034427
vt 0.988961 0.099203
vt 0.918991 0.104660
vt 0.385019 0.029272
vt 0.780127 0.097450
vt 0.354341 0.103552
vt 0.500348 0.279023
vt 0.912877 0.177241
vt 0.834913 0.284263
vt 0.982841 0.186382
vt 0.182179 0.269912
vt 0.187083 0.875136
vt 0.491319 0.321590
vt 0.540051 0.464887
vt 0.540051 0.464887
vt 0.452743 0.563546
vt 0.451934 0.641227
vt 0.451934 0.641227
vt 0.369544 0.181514
vt 0.482259 0.825668
vt 0.482149 0.867577
vt 0.482149 0.867577
vt 0.884306 0.274815
vt 0.000000 0.000000
vt 0.000000 0.000000
vt 0.000000 0.000000
vt 0.354341 0.103552
vt 0.187083 0.931202
vt 0.444448 0.509502
vt 0.444448 0.509502
vt 0.482259 0.825668
vt 0.481946 0.531633
vt 0.481946 0.531633
vt 0.159796 0.476807
vt 0.182179 0.269912
vt 0.884306 0.274815
vt 0.912877 0.177241
vt 0.834913 0.284263
vt 0.369544 0.181514
vt 0.780127 0.097450
vt 0.982841 0.186382
vt 0.918991 0.104660
vt 0.500348 0.279023
vt 0.385019 0.029272
vt 0.988961 0.099203
vt 0.942327 0.034427
vt 0.041294 0.856050
vt 0.059020 0.621753
vt 0.059020 0.842274
vt 0.019009 0.856050
vt 0.008253 0.621753
vt 0.019009 0.607977
vt 0.059978 0.595267
vt 0.041294 0.522473
vt 0.060598 0.522473
vt 0.019009 0.508209
vt 0.019009 0.522473
vt 0.041294 0.607977
vt 0.007103 0.595501
vt 0.059978 0.868760
vt 0.041294 0.941554
vt 0.019009 0.955819
vt 0.019009 0.941554
vt 0.007102 0.868526
vt 0.143632 0.861421
vt 0.122162 0.595305
vt 0.143632 0.609597
vt 0.077495 0.608159
vt 0.093534 0.874018
vt 0.077495 0.860075
vt 0.138566 0.889730
vt 0.122162 0.936039
vt 0.122162 0.874628
vt 0.093534 0.955168
vt 0.093534 0.936039
vt 0.077495 0.888292
vt 0.143632 0.581253
vt 0.122162 0.533241
vt 0.143632 0.533241
vt 0.093534 0.514224
vt 0.093534 0.533241
vt 0.077495 0.579978
vt 0.093534 0.595305
vt 0.625000 0.000000
vt 0.375000 0.250000
vt 0.375000 0.000000
vt 0.625000 0.500000
vt 0.375000 0.500000
vt 0.625000 0.750000
vt 0.375000 0.750000
vt 0.375000 1.000000
vt 0.125000 0.750000
vt 0.125000 0.500000
vt 0.875000 0.750000
vt 0.375000 0.250000
vt 0.625000 0.000000
vt 0.375000 0.000000
vt 0.625000 0.500000
vt 0.625000 0.250000
vt 0.375000 0.500000
vt 0.625000 0.750000
vt 0.375000 1.000000
vt 0.375000 0.750000
vt 0.125000 0.750000
vt 0.125000 0.500000
vt 0.875000 0.750000
vt 0.875000 0.500000
vt 0.757089 0.029272
vt 0.757089 0.029272
vt 0.421502 0.759393
vt 0.421502 0.759393
vt 0.972603 0.040797
vt 0.491319 0.321590
vt 0.452743 0.563546
vt 0.000000 0.000000
vt 0.187083 0.931202
vt 0.159796 0.476807
vt 0.972603 0.040797
vt 0.008253 0.842274
vt 0.041294 0.508209
vt 0.006739 0.522473
vt 0.060598 0.941554
vt 0.041294 0.955819
vt 0.006738 0.941554
vt 0.143632 0.936039
vt 0.122162 0.955168
vt 0.077495 0.936039
vt 0.122162 0.514224
vt 0.077495 0.533241
vt 0.625000 0.250000
vt 0.625000 1.000000
vt 0.875000 0.500000
vt 0.625000 1.000000
vn 0.0000 -0.2087 0.9780
vn 0.9689 -0.1518 -0.1955
vn 0.9883 -0.1526 -0.0070
vn 0.8979 0.4402 0.0069
vn 0.9731 -0.0018 -0.2306
vn 0.9937 -0.0007 0.1122
vn 0.0000 0.8017 0.5977
vn 0.0000 0.0700 -0.9975
vn 1.0000 -0.0031 -0.0068
vn 0.0000 0.9822 -0.1879
vn 0.8530 0.5038 -0.1361
vn 0.0000 -0.9786 -0.2059
vn -0.9661 -0.2407 0.0932
vn 0.0000 -0.0060 1.0000
vn 0.0000 -0.2697 -0.9629
vn 0.0000 0.9999 0.0157
vn 0.0000 0.9880 0.1542
vn -0.8625 0.4970 -0.0951
vn -1.0000 -0.0031 -0.0068
vn -0.9937 -0.0007 0.1122
vn -0.9731 -0.0018 -0.2306
vn -0.8736 0.4865 -0.0076
vn -0.9883 -0.1526 -0.0070
vn -0.9689 -0.1518 -0.1955
vn 0.0000 1.0000 0.0000
vn 0.0000 -1.0000 -0.0000
vn 0.0000 -0.4437 -0.8962
vn 0.9930 0.0525 0.1060
vn -0.9926 0.0000 0.1217
vn 0.0000 0.0000 1.0000
vn 0.0000 0.9968 0.0803
vn 0.0000 -0.9968 -0.0803
vn -0.0466 0.9975 0.0534
vn 0.0000 -0.4178 0.9085
vn 0.9830 0.0125 -0.1831
vn 0.0335 -0.9976 -0.0610
vn 0.0000 0.9996 0.0289
vn -0.9855 0.0710 -0.1543
vn -0.0335 -0.9976 -0.0610
vn -0.9667 0.0229 -0.2548
vn 0.1550 0.0735 -0.9852
vn 0.9034 0.4282 -0.0216
vn -0.2882 -0.1366 0.9478
vn -0.2667 -0.9612 -0.0703
vn -0.0178 0.9998 0.0004
vn 0.9661 -0.2407 0.0932
vn 0.0000 0.0680 -0.9977
vn 0.9667 0.0228 -0.2548
vn -0.2274 -0.0054 -0.9738
vn -0.9034 0.4282 -0.0216
vn 0.2882 -0.1366 0.9478
vn 0.2667 -0.9612 -0.0703
vn 0.0189 0.9998 -0.0050
vn 0.0000 -0.9989 0.0469
vn 0.0000 -1.0000 -0.0092
vn 0.0000 0.7442 -0.6679
vn 0.8991 -0.2625 -0.3504
vn 0.9768 -0.2134 -0.0157
vn 0.8736 0.4865 -0.0076
vn 0.9775 0.0148 -0.2103
vn 0.9939 0.0194 0.1086
vn 0.9998 -0.0215 -0.0042
vn 0.8625 0.4970 -0.0951
vn -0.9744 -0.1976 0.1074
vn -0.8530 0.5038 -0.1361
vn -0.9998 -0.0215 -0.0042
vn -0.9939 0.0194 0.1086
vn -0.9775 0.0148 -0.2103
vn -0.8979 0.4402 0.0069
vn -0.9768 -0.2134 -0.0157
vn -0.8991 -0.2625 -0.3504
vn 0.9926 0.0000 0.1217
vn -0.9930 0.0525 0.1060
vn 0.9855 0.0710 -0.1543
vn 0.0000 -0.9993 -0.0385
vn 0.0466 0.9975 0.0534
vn -0.9830 0.0125 -0.1831
vn -0.9667 0.0228 -0.2548
vn 0.2274 -0.0054 -0.9738
vn -0.3978 0.0094 0.9174
vn -0.2589 -0.9659 0.0062
vn -0.0189 0.9998 -0.0050
vn 0.9744 -0.1976 0.1074
vn -0.1550 0.0735 -0.9852
vn 0.3978 0.0094 0.9174
vn 0.2589 -0.9659 0.0062
vn 0.0178 0.9998 0.0004
usemtl None
s off
f 66/1/1 18/2/1 13/3/1
f 2/4/2 5/5/2 1/6/2
f 4/7/3 1/8/3 3/9/3
f 69/10/4 7/11/4 8/12/4
f 1/6/5 65/13/5 7/11/5
f 3/9/6 67/14/6 6/15/6
f 11/16/7 69/17/7 10/18/7
f 5/19/8 14/20/8 65/21/8
f 1/8/9 68/22/9 3/9/9
f 16/23/10 70/24/10 9/25/10
f 70/26/11 7/11/11 65/13/11
f 2/27/12 15/28/12 64/29/12
f 21/30/13 13/3/13 18/2/13
f 67/31/14 18/2/14 6/15/14
f 15/32/15 5/19/15 64/33/15
f 8/34/16 10/35/16 69/36/16
f 68/37/17 12/38/17 67/14/17
f 9/39/18 17/40/18 16/41/18
f 11/42/19 23/43/19 21/30/19
f 12/38/20 21/30/20 18/2/20
f 14/44/21 23/45/21 17/40/21
f 10/46/22 17/40/22 11/42/22
f 23/43/23 20/47/23 21/30/23
f 19/48/24 22/49/24 23/45/24
f 32/50/25 27/51/25 35/52/25
f 33/53/26 26/54/26 25/55/26
f 27/56/25 28/57/25 31/58/25
f 30/59/27 28/57/27 29/60/27
f 24/61/28 29/60/28 28/57/28
f 26/62/26 29/60/26 25/55/26
f 35/63/25 36/64/25 32/50/25
f 36/64/27 38/65/27 37/66/27
f 32/50/29 37/66/29 33/53/29
f 37/66/26 34/67/26 33/53/26
f 25/55/30 32/50/30 33/53/30
f 43/68/31 48/69/31 51/70/31
f 50/71/32 41/72/32 42/73/32
f 43/74/33 44/75/33 40/76/33
f 44/75/34 46/77/34 45/78/34
f 40/76/35 45/78/35 41/72/35
f 45/78/36 42/79/36 41/72/36
f 51/80/37 52/81/37 55/82/37
f 54/83/34 52/81/34 53/84/34
f 48/69/38 53/84/38 52/81/38
f 50/85/39 53/84/39 49/86/39
f 57/87/40 58/88/40 56/89/40
f 58/88/41 63/90/41 62/91/41
f 62/91/42 61/92/42 60/93/42
f 61/92/43 56/94/43 60/93/43
f 62/91/44 56/95/44 58/96/44
f 63/90/45 57/97/45 61/92/45
f 66/1/46 3/9/46 6/15/46
f 48/69/47 41/72/47 49/86/47
f 73/98/48 72/99/48 71/100/48
f 73/98/49 78/101/49 74/102/49
f 77/103/50 76/104/50 78/101/50
f 71/105/51 76/104/51 75/106/51
f 71/107/52 77/103/52 73/108/52
f 78/101/53 72/109/53 74/110/53
f 66/1/54 20/47/54 4/7/54
f 4/7/55 22/111/55 2/112/55
f 65/21/56 9/113/56 70/114/56
f 66/1/1 6/15/1 18/2/1
f 2/4/57 64/115/57 5/5/57
f 4/7/58 2/112/58 1/8/58
f 69/10/59 68/22/59 7/11/59
f 1/6/60 5/5/60 65/13/60
f 3/9/61 68/22/61 67/14/61
f 11/16/7 68/116/7 69/17/7
f 5/19/8 19/117/8 14/20/8
f 1/8/62 7/11/62 68/22/62
f 16/23/10 8/34/10 70/24/10
f 70/26/63 8/12/63 7/11/63
f 2/27/12 22/118/12 15/28/12
f 21/30/64 20/47/64 13/3/64
f 67/31/14 12/119/14 18/2/14
f 15/32/15 19/117/15 5/19/15
f 8/34/16 16/23/16 10/35/16
f 68/37/17 11/120/17 12/38/17
f 9/39/65 14/44/65 17/40/65
f 11/42/66 17/40/66 23/43/66
f 12/38/67 11/42/67 21/30/67
f 14/44/68 19/48/68 23/45/68
f 10/46/69 16/41/69 17/40/69
f 23/43/70 22/111/70 20/47/70
f 19/48/71 15/121/71 22/49/71
f 32/50/25 24/61/25 27/51/25
f 33/53/26 34/122/26 26/54/26
f 27/56/25 24/61/25 28/57/25
f 30/59/27 31/123/27 28/57/27
f 24/61/72 25/55/72 29/60/72
f 26/62/26 30/124/26 29/60/26
f 35/63/25 39/125/25 36/64/25
f 36/64/27 39/126/27 38/65/27
f 32/50/73 36/64/73 37/66/73
f 37/66/26 38/127/26 34/67/26
f 25/55/30 24/61/30 32/50/30
f 43/68/31 40/76/31 48/69/31
f 50/71/32 49/86/32 41/72/32
f 43/74/37 47/128/37 44/75/37
f 44/75/34 47/129/34 46/77/34
f 40/76/74 44/75/74 45/78/74
f 45/78/75 46/130/75 42/79/75
f 51/80/76 48/69/76 52/81/76
f 54/83/34 55/131/34 52/81/34
f 48/69/77 49/86/77 53/84/77
f 50/85/75 54/132/75 53/84/75
f 57/87/78 59/133/78 58/88/78
f 58/88/79 59/133/79 63/90/79
f 62/91/42 63/90/42 61/92/42
f 61/92/80 57/134/80 56/94/80
f 62/91/81 60/93/81 56/95/81
f 63/90/82 59/135/82 57/97/82
f 66/1/83 4/7/83 3/9/83
f 48/69/47 40/76/47 41/72/47
f 73/98/48 74/102/48 72/99/48
f 73/98/84 77/103/84 78/101/84
f 77/103/50 75/106/50 76/104/50
f 71/105/85 72/136/85 76/104/85
f 71/107/86 75/106/86 77/103/86
f 78/101/87 76/104/87 72/109/87
f 66/1/54 13/3/54 20/47/54
f 4/7/55 20/47/55 22/111/55
f 65/21/56 14/20/56 9/113/56
